<svg xmlns="http://www.w3.org/2000/svg" viewBox="0 0 1024 1024" role="img" aria-label="ImageToolkit">
  <defs>
    <linearGradient id="bg" x1="0.08" y1="0.02" x2="0.92" y2="0.98"><stop offset="0" stop-color="#1FC8F2"/><stop offset="0.42" stop-color="#5A6BFF"/><stop offset="0.78" stop-color="#7F55F5"/><stop offset="1" stop-color="#A24DEE"/></linearGradient>
    <radialGradient id="hl" cx="0.28" cy="0.16" r="0.75">
      <stop offset="0" stop-color="#fff" stop-opacity="0.1"/>
      <stop offset="0.55" stop-color="#fff" stop-opacity="0"/>
    </radialGradient>
    <linearGradient id="shade" x1="0" y1="0" x2="0" y2="1">
      <stop offset="0.6" stop-color="#1a1050" stop-opacity="0"/>
      <stop offset="1" stop-color="#1a1050" stop-opacity="0.18"/>
    </linearGradient>
    <clipPath id="inside"><rect x="304" y="344" width="392" height="392" rx="46"/></clipPath>
  </defs>
  <path d="M1024 512L1023.9 631.2L1023.7 669.3L1023.4 697L1022.9 719.5L1022.2 738.8L1021.5 755.8L1020.6 771.1L1019.5 785.2L1018.3 798.1L1016.9 810.2L1015.5 821.5L1013.8 832.1L1012 842.1L1010.1 851.6L1008 860.7L1005.8 869.3L1003.4 877.5L1000.9 885.3L998.2 892.8L995.4 900L992.4 906.9L989.2 913.5L985.9 919.9L982.4 926L978.7 931.8L974.9 937.4L970.9 942.8L966.7 948L962.3 953L957.7 957.7L953 962.3L948 966.7L942.8 970.9L937.4 974.9L931.8 978.7L926 982.4L919.9 985.9L913.5 989.2L906.9 992.4L900 995.4L892.8 998.2L885.3 1000.9L877.5 1003.4L869.3 1005.8L860.7 1008L851.6 1010.1L842.1 1012L832.1 1013.8L821.5 1015.5L810.2 1016.9L798.1 1018.3L785.2 1019.5L771.1 1020.6L755.8 1021.5L738.8 1022.2L719.5 1022.9L697 1023.4L669.3 1023.7L631.2 1023.9L512 1024L392.8 1023.9L354.7 1023.7L327 1023.4L304.5 1022.9L285.2 1022.2L268.2 1021.5L252.9 1020.6L238.8 1019.5L225.9 1018.3L213.8 1016.9L202.5 1015.5L191.9 1013.8L181.9 1012L172.4 1010.1L163.3 1008L154.7 1005.8L146.5 1003.4L138.7 1000.9L131.2 998.2L124 995.4L117.1 992.4L110.5 989.2L104.1 985.9L98 982.4L92.2 978.7L86.6 974.9L81.2 970.9L76 966.7L71 962.3L66.3 957.7L61.7 953L57.3 948L53.1 942.8L49.1 937.4L45.3 931.8L41.6 926L38.1 919.9L34.8 913.5L31.6 906.9L28.6 900L25.8 892.8L23.1 885.3L20.6 877.5L18.2 869.3L16 860.7L13.9 851.6L12 842.1L10.2 832.1L8.5 821.5L7.1 810.2L5.7 798.1L4.5 785.2L3.4 771.1L2.5 755.8L1.8 738.8L1.1 719.5L0.6 697L0.3 669.3L0.1 631.2L0 512L0.1 392.8L0.3 354.7L0.6 327L1.1 304.5L1.8 285.2L2.5 268.2L3.4 252.9L4.5 238.8L5.7 225.9L7.1 213.8L8.5 202.5L10.2 191.9L12 181.9L13.9 172.4L16 163.3L18.2 154.7L20.6 146.5L23.1 138.7L25.8 131.2L28.6 124L31.6 117.1L34.8 110.5L38.1 104.1L41.6 98L45.3 92.2L49.1 86.6L53.1 81.2L57.3 76L61.7 71L66.3 66.3L71 61.7L76 57.3L81.2 53.1L86.6 49.1L92.2 45.3L98 41.6L104.1 38.1L110.5 34.8L117.1 31.6L124 28.6L131.2 25.8L138.7 23.1L146.5 20.6L154.7 18.2L163.3 16L172.4 13.9L181.9 12L191.9 10.2L202.5 8.5L213.8 7.1L225.9 5.7L238.8 4.5L252.9 3.4L268.2 2.5L285.2 1.8L304.5 1.1L327 0.6L354.7 0.3L392.8 0.1L512 0L631.2 0.1L669.3 0.3L697 0.6L719.5 1.1L738.8 1.8L755.8 2.5L771.1 3.4L785.2 4.5L798.1 5.7L810.2 7.1L821.5 8.5L832.1 10.2L842.1 12L851.6 13.9L860.7 16L869.3 18.2L877.5 20.6L885.3 23.1L892.8 25.8L900 28.6L906.9 31.6L913.5 34.8L919.9 38.1L926 41.6L931.8 45.3L937.4 49.1L942.8 53.1L948 57.3L953 61.7L957.7 66.3L962.3 71L966.7 76L970.9 81.2L974.9 86.6L978.7 92.2L982.4 98L985.9 104.1L989.2 110.5L992.4 117.1L995.4 124L998.2 131.2L1000.9 138.7L1003.4 146.5L1005.8 154.7L1008 163.3L1010.1 172.4L1012 181.9L1013.8 191.9L1015.5 202.5L1016.9 213.8L1018.3 225.9L1019.5 238.8L1020.6 252.9L1021.5 268.2L1022.2 285.2L1022.9 304.5L1023.4 327L1023.7 354.7L1023.9 392.8Z" fill="url(#bg)"/>
  <path d="M1024 512L1023.9 631.2L1023.7 669.3L1023.4 697L1022.9 719.5L1022.2 738.8L1021.5 755.8L1020.6 771.1L1019.5 785.2L1018.3 798.1L1016.9 810.2L1015.5 821.5L1013.8 832.1L1012 842.1L1010.1 851.6L1008 860.7L1005.8 869.3L1003.4 877.5L1000.9 885.3L998.2 892.8L995.4 900L992.4 906.9L989.2 913.5L985.9 919.9L982.4 926L978.7 931.8L974.9 937.4L970.9 942.8L966.7 948L962.3 953L957.7 957.7L953 962.3L948 966.7L942.8 970.9L937.4 974.9L931.8 978.7L926 982.4L919.9 985.9L913.5 989.2L906.9 992.4L900 995.4L892.8 998.2L885.3 1000.9L877.5 1003.4L869.3 1005.8L860.7 1008L851.6 1010.1L842.1 1012L832.1 1013.8L821.5 1015.5L810.2 1016.9L798.1 1018.3L785.2 1019.5L771.1 1020.6L755.8 1021.5L738.8 1022.2L719.5 1022.9L697 1023.4L669.3 1023.7L631.2 1023.9L512 1024L392.8 1023.9L354.7 1023.7L327 1023.4L304.5 1022.9L285.2 1022.2L268.2 1021.5L252.9 1020.6L238.8 1019.5L225.9 1018.3L213.8 1016.9L202.5 1015.5L191.9 1013.8L181.9 1012L172.4 1010.1L163.3 1008L154.7 1005.8L146.5 1003.4L138.7 1000.9L131.2 998.2L124 995.4L117.1 992.4L110.5 989.2L104.1 985.9L98 982.4L92.2 978.7L86.6 974.9L81.2 970.9L76 966.7L71 962.3L66.3 957.7L61.7 953L57.3 948L53.1 942.8L49.1 937.4L45.3 931.8L41.6 926L38.1 919.9L34.8 913.5L31.6 906.9L28.6 900L25.8 892.8L23.1 885.3L20.6 877.5L18.2 869.3L16 860.7L13.9 851.6L12 842.1L10.2 832.1L8.5 821.5L7.1 810.2L5.7 798.1L4.5 785.2L3.4 771.1L2.5 755.8L1.8 738.8L1.1 719.5L0.6 697L0.3 669.3L0.1 631.2L0 512L0.1 392.8L0.3 354.7L0.6 327L1.1 304.5L1.8 285.2L2.5 268.2L3.4 252.9L4.5 238.8L5.7 225.9L7.1 213.8L8.5 202.5L10.2 191.9L12 181.9L13.9 172.4L16 163.3L18.2 154.7L20.6 146.5L23.1 138.7L25.8 131.2L28.6 124L31.6 117.1L34.8 110.5L38.1 104.1L41.6 98L45.3 92.2L49.1 86.6L53.1 81.2L57.3 76L61.7 71L66.3 66.3L71 61.7L76 57.3L81.2 53.1L86.6 49.1L92.2 45.3L98 41.6L104.1 38.1L110.5 34.8L117.1 31.6L124 28.6L131.2 25.8L138.7 23.1L146.5 20.6L154.7 18.2L163.3 16L172.4 13.9L181.9 12L191.9 10.2L202.5 8.5L213.8 7.1L225.9 5.7L238.8 4.5L252.9 3.4L268.2 2.5L285.2 1.8L304.5 1.1L327 0.6L354.7 0.3L392.8 0.1L512 0L631.2 0.1L669.3 0.3L697 0.6L719.5 1.1L738.8 1.8L755.8 2.5L771.1 3.4L785.2 4.5L798.1 5.7L810.2 7.1L821.5 8.5L832.1 10.2L842.1 12L851.6 13.9L860.7 16L869.3 18.2L877.5 20.6L885.3 23.1L892.8 25.8L900 28.6L906.9 31.6L913.5 34.8L919.9 38.1L926 41.6L931.8 45.3L937.4 49.1L942.8 53.1L948 57.3L953 61.7L957.7 66.3L962.3 71L966.7 76L970.9 81.2L974.9 86.6L978.7 92.2L982.4 98L985.9 104.1L989.2 110.5L992.4 117.1L995.4 124L998.2 131.2L1000.9 138.7L1003.4 146.5L1005.8 154.7L1008 163.3L1010.1 172.4L1012 181.9L1013.8 191.9L1015.5 202.5L1016.9 213.8L1018.3 225.9L1019.5 238.8L1020.6 252.9L1021.5 268.2L1022.2 285.2L1022.9 304.5L1023.4 327L1023.7 354.7L1023.9 392.8Z" fill="url(#hl)"/>
  <path d="M1024 512L1023.9 631.2L1023.7 669.3L1023.4 697L1022.9 719.5L1022.2 738.8L1021.5 755.8L1020.6 771.1L1019.5 785.2L1018.3 798.1L1016.9 810.2L1015.5 821.5L1013.8 832.1L1012 842.1L1010.1 851.6L1008 860.7L1005.8 869.3L1003.4 877.5L1000.9 885.3L998.2 892.8L995.4 900L992.4 906.9L989.2 913.5L985.9 919.9L982.4 926L978.7 931.8L974.9 937.4L970.9 942.8L966.7 948L962.3 953L957.7 957.7L953 962.3L948 966.7L942.8 970.9L937.4 974.9L931.8 978.7L926 982.4L919.9 985.9L913.5 989.2L906.9 992.4L900 995.4L892.8 998.2L885.3 1000.9L877.5 1003.4L869.3 1005.8L860.7 1008L851.6 1010.1L842.1 1012L832.1 1013.8L821.5 1015.5L810.2 1016.9L798.1 1018.3L785.2 1019.5L771.1 1020.6L755.8 1021.5L738.8 1022.2L719.5 1022.9L697 1023.4L669.3 1023.7L631.2 1023.9L512 1024L392.8 1023.9L354.7 1023.7L327 1023.4L304.5 1022.9L285.2 1022.2L268.2 1021.5L252.9 1020.6L238.8 1019.5L225.9 1018.3L213.8 1016.9L202.5 1015.5L191.9 1013.8L181.9 1012L172.4 1010.1L163.3 1008L154.7 1005.8L146.5 1003.4L138.7 1000.9L131.2 998.2L124 995.4L117.1 992.4L110.5 989.2L104.1 985.9L98 982.4L92.2 978.7L86.6 974.9L81.2 970.9L76 966.7L71 962.3L66.3 957.7L61.7 953L57.3 948L53.1 942.8L49.1 937.4L45.3 931.8L41.6 926L38.1 919.9L34.8 913.5L31.6 906.9L28.6 900L25.8 892.8L23.1 885.3L20.6 877.5L18.2 869.3L16 860.7L13.9 851.6L12 842.1L10.2 832.1L8.5 821.5L7.1 810.2L5.7 798.1L4.5 785.2L3.4 771.1L2.5 755.8L1.8 738.8L1.1 719.5L0.6 697L0.3 669.3L0.1 631.2L0 512L0.1 392.8L0.3 354.7L0.6 327L1.1 304.5L1.8 285.2L2.5 268.2L3.4 252.9L4.5 238.8L5.7 225.9L7.1 213.8L8.5 202.5L10.2 191.9L12 181.9L13.9 172.4L16 163.3L18.2 154.7L20.6 146.5L23.1 138.7L25.8 131.2L28.6 124L31.6 117.1L34.8 110.5L38.1 104.1L41.6 98L45.3 92.2L49.1 86.6L53.1 81.2L57.3 76L61.7 71L66.3 66.3L71 61.7L76 57.3L81.2 53.1L86.6 49.1L92.2 45.3L98 41.6L104.1 38.1L110.5 34.8L117.1 31.6L124 28.6L131.2 25.8L138.7 23.1L146.5 20.6L154.7 18.2L163.3 16L172.4 13.9L181.9 12L191.9 10.2L202.5 8.5L213.8 7.1L225.9 5.7L238.8 4.5L252.9 3.4L268.2 2.5L285.2 1.8L304.5 1.1L327 0.6L354.7 0.3L392.8 0.1L512 0L631.2 0.1L669.3 0.3L697 0.6L719.5 1.1L738.8 1.8L755.8 2.5L771.1 3.4L785.2 4.5L798.1 5.7L810.2 7.1L821.5 8.5L832.1 10.2L842.1 12L851.6 13.9L860.7 16L869.3 18.2L877.5 20.6L885.3 23.1L892.8 25.8L900 28.6L906.9 31.6L913.5 34.8L919.9 38.1L926 41.6L931.8 45.3L937.4 49.1L942.8 53.1L948 57.3L953 61.7L957.7 66.3L962.3 71L966.7 76L970.9 81.2L974.9 86.6L978.7 92.2L982.4 98L985.9 104.1L989.2 110.5L992.4 117.1L995.4 124L998.2 131.2L1000.9 138.7L1003.4 146.5L1005.8 154.7L1008 163.3L1010.1 172.4L1012 181.9L1013.8 191.9L1015.5 202.5L1016.9 213.8L1018.3 225.9L1019.5 238.8L1020.6 252.9L1021.5 268.2L1022.2 285.2L1022.9 304.5L1023.4 327L1023.7 354.7L1023.9 392.8Z" fill="url(#shade)"/>
  <g fill="none" stroke="#fff" stroke-width="88" stroke-linecap="round" stroke-linejoin="round">
    <path d="M488 300H350a90 90 0 0 0-90 90v300a90 90 0 0 0 90 90h300a90 90 0 0 0 90-90V552"/>
    <path d="M636 388L800 224M688 224h112v112"/>
    <g clip-path="url(#inside)" stroke="none" fill="#fff">
      <circle cx="404" cy="444" r="49"/>
      <path d="M250 800L482 572a34 34 0 0 1 48 0L780 800Z"/>
    </g>
  </g>
</svg>
